<svg width="138" height="850" viewBox="0 0 138 850" fill="none" xmlns="http://www.w3.org/2000/svg">
<path d="M117.382 849.151H108.981V851.425H100.351V854.337L96.4398 858.248H90.7166V860.002H94.7128L87.4698 867.224L100.351 880.105V881.747H81.4277V906.723H84.4195V898.848H100.362V901.425H94.1282V918.175H95.5524V916.506H100.335V917.819H108.965V905.501H124.423V912.133H137.98V908.944H127.628V901.611H137.995V876.986H126.916V855.82H137.995V851.425H125.476V841.685H117.382V849.151ZM100.351 912.133V914.455H95.5683V912.106L100.351 912.133ZM100.351 907.759V910.108H95.5683V907.759H100.351ZM100.351 903.45V905.735H95.5683V903.45H100.351ZM85.4079 895.479V893.215H88.8674V895.494L85.4079 895.479ZM117.34 898.667V901.611H108.981V898.656L117.34 898.667ZM117.34 892.55V895.494H108.981V892.54L117.34 892.55ZM85.4079 890.521V888.257H88.8674V890.51L85.4079 890.521ZM117.34 886.434V889.378H108.981V886.423L117.34 886.434ZM91.8964 867.304L96.8384 862.362V872.219L91.8964 867.304ZM98.4857 875.131V859.598H100.351V875.131H98.4857ZM104.214 864.163H102.37V859.598H104.214V864.163ZM105.808 859.598H112.759V864.163H105.793L105.808 859.598ZM102.37 875.131V870.566H104.214V875.131H102.37ZM105.793 875.131V870.566H112.743V875.131H105.793ZM125.561 855.809V876.986H121.384V855.82L125.561 855.809ZM123.063 846.776V849.13H118.812V846.776H123.063ZM123.063 843.183V845.532H118.812V843.183H123.063Z" fill="#F8F8F8"/>
<path d="M39.3365 764.209L33.8345 776.572H26.5178V780.187H32.2367L22.4546 802.144L28.441 815.599H20.2061V814.485H16.7646V822.38H20.2061V821.267H30.9642L39.3365 840.065C39.6829 840.741 40.2742 841.258 40.9897 841.513C41.7052 841.767 42.4907 841.738 43.1859 841.433C43.881 841.127 44.4332 840.568 44.7296 839.869C45.026 839.17 45.0442 838.384 44.7806 837.672L28.9832 802.144L44.7806 766.631C45.1018 765.909 45.123 765.089 44.8396 764.351C44.5563 763.613 43.9915 763.019 43.2695 762.697C42.5476 762.376 41.7276 762.355 40.9901 762.638C40.2525 762.922 39.6576 763.487 39.3365 764.209Z" fill="#F8F8F8"/>
<path d="M92.7227 767.353V836.298H104.175V767.353H92.7227Z" fill="#F8F8F8"/>
<path d="M33.7559 802.136L48.1434 834.461H90.7999V769.804H48.1434L33.7559 802.136ZM60.3475 817.63V814.485H65.8422V817.63H60.3475ZM60.3475 812.93V809.778H65.8422V812.93H60.3475ZM58.6268 809.778V812.93H53.9563V809.778H58.6268ZM53.9563 814.485H58.6268V817.63H53.9563V814.485ZM59.9932 832.119V826.103H62.5382V832.097L59.9932 832.119ZM66.6086 832.119V826.103H69.1536V832.097L66.6086 832.119ZM77.6126 832.119V826.103H80.1575V832.097L77.6126 832.119ZM86.7729 826.103V832.097H84.2279V826.103H86.7729ZM83.4688 823.493V829.487H80.9239V823.493H83.4688ZM65.8422 823.493V829.487H63.2973V823.493H65.8422ZM70.426 807.587V819.806H67.8811V807.609L70.426 807.587ZM63.2973 781.213V775.219H65.8422V781.213H63.2973ZM60.3475 794.95V791.804H65.8422V794.942L60.3475 794.95ZM60.3475 790.25V787.062H65.8422V790.243L60.3475 790.25ZM58.6268 787.062V790.243H53.9563V787.062H58.6268ZM53.9563 791.768H58.6268V794.942H53.9563V791.768ZM70.426 784.893V797.111H67.8811V784.893H70.426ZM80.9239 781.205V775.212H83.4688V781.205H80.9239ZM86.7729 772.602V778.595H84.2279V772.602H86.7729ZM80.1575 772.602V778.595H77.6126V772.602H80.1575ZM69.1536 772.602V778.595H66.6086V772.602H69.1536ZM62.5382 772.602V778.595H59.9932V772.602H62.5382Z" fill="#F8F8F8"/>
<path d="M131.718 834.461V826.4H111.532V805.91H131.718V769.804H106.124V834.461H131.718ZM115.284 780.96V776.622H125.638V780.96H115.284ZM115.284 790.597V786.259H125.638V790.597H115.284ZM115.284 800.213V795.875H125.638V800.213H115.284Z" fill="#F8F8F8"/>
<path d="M135.528 805.903V808.535H114.12V823.754H135.528V826.385H133.048V834.461H138.001V769.804H133.048V805.903H135.528ZM117.178 816.473C117.178 816.241 117.247 816.015 117.376 815.822C117.504 815.63 117.687 815.48 117.901 815.391C118.115 815.302 118.351 815.279 118.578 815.324C118.805 815.369 119.014 815.481 119.178 815.645C119.342 815.809 119.453 816.017 119.498 816.244C119.544 816.472 119.52 816.707 119.432 816.921C119.343 817.135 119.193 817.318 119 817.447C118.808 817.576 118.581 817.644 118.35 817.644C118.04 817.642 117.743 817.518 117.524 817.299C117.304 817.08 117.18 816.783 117.178 816.473Z" fill="#F8F8F8"/>
<path d="M74.7305 719.572V728.805H85.7572V719.572H74.7305Z" fill="#F8F8F8"/>
<path d="M47.2959 694.402V702.177H49.2638V694.402H47.2959Z" fill="#F8F8F8"/>
<path d="M135.742 717.83V719.862H116.102V729.141H135.748V731.166H129.522V759.711H138V689.286H129.516V717.83H135.742ZM118.76 726.534V722.469H119.792V726.534H118.76Z" fill="#F8F8F8"/>
<path d="M127.374 759.711V731.166H113.611V717.83H127.374V689.286H97.0488V759.711H127.374ZM102.043 708.403V698.519H104.101V708.403H102.043ZM105.85 708.403V698.519H108.43V708.403H105.85ZM110.289 708.403V698.519H119.322V708.403H110.289ZM121.257 709.842V697.061H123.193V709.842H121.257ZM102.043 751.258V741.387H104.101V751.258H102.043ZM105.85 751.258V741.387H108.43V751.258H105.85ZM110.295 751.258V741.387H119.328V751.258H110.295ZM121.264 752.704V739.941H123.199V752.71L121.264 752.704Z" fill="#F8F8F8"/>
<path d="M57.271 695.738H51.2318V700.835H57.271V740.793H54.0901V743.206H57.271V747.226H50.5156V752.594H57.271V762.44H93.803V685.95H57.271V695.738ZM88.5122 714.772V733.612H73.4659L64.4329 724.192L73.4659 714.772H88.5122ZM72.0528 714.772L63.0005 724.16L72.0335 733.58H69.6462L60.6132 724.16L69.6462 714.74L72.0528 714.772Z" fill="#F8F8F8"/>
<path d="M97.8864 609.915L45.877 647.682L72.8639 667.279H64.8V665.635H60.4285V674.378H64.8121V672.729H80.364L97.8864 685.462C98.1394 685.655 98.4285 685.795 98.7366 685.875C99.0447 685.954 99.3656 685.971 99.6803 685.925C99.9951 685.878 100.297 685.769 100.569 685.604C100.841 685.438 101.077 685.22 101.264 684.962C101.45 684.704 101.583 684.412 101.654 684.102C101.725 683.792 101.734 683.47 101.679 683.157C101.624 682.844 101.507 682.544 101.335 682.277C101.162 682.009 100.938 681.779 100.675 681.6L80.8066 667.285L53.5953 647.689L100.669 614.22C100.979 614 101.231 613.709 101.405 613.371C101.579 613.034 101.67 612.66 101.67 612.28V611.849C101.671 611.409 101.55 610.978 101.321 610.602C101.092 610.226 100.763 609.922 100.372 609.721C99.9799 609.521 99.5403 609.433 99.1017 609.467C98.663 609.502 98.2424 609.657 97.8864 609.915Z" fill="#F8F8F8"/>
<path d="M113.28 649.253V652.011H117.761V649.253H113.28Z" fill="#F8F8F8"/>
<path d="M119.319 649.253V652.011H123.8V649.253H119.319Z" fill="#F8F8F8"/>
<path d="M113.28 644.936V647.694H117.761V644.936H113.28Z" fill="#F8F8F8"/>
<path d="M119.319 644.936V647.694H123.8V644.936H119.319Z" fill="#F8F8F8"/>
<path d="M113.28 627.674V630.433H117.761V627.674H113.28Z" fill="#F8F8F8"/>
<path d="M119.319 627.674V630.433H123.8V627.674H119.319Z" fill="#F8F8F8"/>
<path d="M138 677.016V618.355H106.921V677.016H138ZM111.153 636.914V625.51H125.911V636.914H111.153ZM111.153 654.176V642.778H125.911V654.176H111.153ZM119.035 659.348H135.321V661.288H121.163V668.522H135.321V670.644H119.035V659.348Z" fill="#F8F8F8"/>
<path d="M119.319 631.991V634.75H123.8V631.991H119.319Z" fill="#F8F8F8"/>
<path d="M113.28 631.991V634.75H117.761V631.991H113.28Z" fill="#F8F8F8"/>
<path d="M100.566 677.016H104.24V618.355H100.566L58.4453 647.683L100.566 677.016ZM100.754 660.912V664.55H94.1329V660.912H100.754ZM100.754 650.896V654.534H94.1329V650.896H100.754ZM100.754 640.88V644.518H94.1329V640.88H100.754ZM94.1329 634.477V630.839H100.754V634.477H94.1329ZM82.4674 639.794C83.5557 639.822 84.6266 640.074 85.6125 640.536C86.5984 640.998 87.4779 641.659 88.1956 642.478C88.9134 643.296 89.4537 644.255 89.7827 645.292C90.1117 646.33 90.2221 647.425 90.107 648.507C89.9918 649.59 89.6537 650.637 89.1139 651.582C88.5741 652.528 87.8443 653.351 86.9704 654C86.0966 654.65 85.0978 655.111 84.0368 655.355C82.9759 655.599 81.8759 655.621 80.8061 655.419V639.97C81.3521 639.853 81.909 639.794 82.4674 639.794ZM78.9265 640.637V654.752C77.6133 654.099 76.5084 653.093 75.7359 651.846C74.9635 650.599 74.5543 649.161 74.5543 647.695C74.5543 646.228 74.9635 644.79 75.7359 643.544C76.5084 642.297 77.6133 641.29 78.9265 640.637Z" fill="#F8F8F8"/>
<path d="M118.032 541.412H120.411V539.033C119.834 539.173 119.307 539.469 118.888 539.888C118.468 540.308 118.172 540.835 118.032 541.412Z" fill="#F8F8F8"/>
<path d="M120.411 545.302V542.923H118.032C118.171 543.5 118.467 544.028 118.887 544.447C119.306 544.867 119.834 545.163 120.411 545.302Z" fill="#F8F8F8"/>
<path d="M124.318 541.411C124.179 540.834 123.883 540.307 123.464 539.887C123.044 539.468 122.516 539.172 121.939 539.033V541.411H124.318Z" fill="#F8F8F8"/>
<path d="M124.318 542.923H121.939V545.302C122.517 545.164 123.045 544.869 123.465 544.449C123.885 544.029 124.18 543.501 124.318 542.923Z" fill="#F8F8F8"/>
<path d="M120.424 487.759L104.923 521.479L61.2109 564.859L78.7218 580.649H71.998V578.596H67.4142V590.091H71.998V588.045H86.8988L110.606 609.46L110.505 601.507L67.4142 564.909L110.606 523.699V528.109L104.923 533.524V593.287L110.707 598.283H138V494.056H120.424V487.759ZM127.95 585.985V591.732H117.279V585.985H127.95ZM127.95 572.848V578.632H117.279V572.848H127.95ZM127.95 559.718V565.502H117.279V559.718H127.95ZM134.927 548.223H121.718C120.113 548.223 118.574 547.585 117.439 546.45C116.304 545.315 115.667 543.776 115.667 542.171C115.667 540.566 116.304 539.027 117.439 537.892C118.574 536.757 120.113 536.12 121.718 536.12H134.949L134.927 548.223ZM127.95 515.746V521.494H117.279V515.746H127.95Z" fill="#F8F8F8"/>
<path d="M102.921 591.551V535.483L71.999 564.981L102.921 591.551ZM90.5365 572.862C89.747 572.863 88.962 572.744 88.2085 572.508V566.088H98.2364C97.9956 567.96 97.0811 569.68 95.664 570.927C94.2469 572.174 92.4241 572.862 90.5365 572.862ZM98.2364 564.099H88.2085V557.679C89.2916 557.34 90.4357 557.243 91.5605 557.394C92.6853 557.544 93.7635 557.94 94.7192 558.551C95.6749 559.163 96.4851 559.977 97.0927 560.936C97.7004 561.894 98.0907 562.974 98.2364 564.099ZM86.6685 558.315V571.828C85.4765 571.15 84.4854 570.168 83.796 568.983C83.1065 567.797 82.7433 566.45 82.7433 565.079C82.7433 563.708 83.1065 562.361 83.796 561.175C84.4854 559.99 85.4765 559.008 86.6685 558.33V558.315Z" fill="#F8F8F8"/>
<path d="M121.987 432.19V457.824H124.963V432.19H121.987Z" fill="#F8F8F8"/>
<path d="M126.143 432.19V457.824H138V432.19H126.143Z" fill="#F8F8F8"/>
<path d="M93.2334 421.312H86.1217V430.263H76.8319V444.907H86.1217V451.962H68.4962V456.5H65.7783V458.195H60.625V461.723H65.7783V466.945H68.4962V481.928H86.1217V487.759H138V460.103H119.967V429.905H138V421.312H110.463V411.269H93.2334V421.312ZM72.7519 465.62V455.772H75.4447V465.62H72.7519ZM76.8193 465.62V455.772H79.4494V465.62H76.8193ZM72.7519 477.961V468.112H75.4447V477.961H72.7519ZM76.8193 477.961V468.112H79.4494V477.961H76.8193ZM101.243 478.124V468.966H103.082V478.124H101.243ZM121.58 473.542C121.58 473.724 121.526 473.903 121.424 474.055C121.323 474.206 121.179 474.325 121.01 474.394C120.842 474.464 120.656 474.482 120.477 474.447C120.298 474.411 120.134 474.323 120.005 474.194C119.876 474.065 119.788 473.901 119.752 473.722C119.716 473.543 119.735 473.357 119.805 473.189C119.874 473.02 119.993 472.876 120.144 472.775C120.296 472.673 120.475 472.619 120.657 472.619C120.778 472.619 120.898 472.643 121.01 472.689C121.122 472.736 121.224 472.804 121.309 472.889C121.395 472.975 121.463 473.077 121.51 473.189C121.556 473.301 121.58 473.421 121.58 473.542ZM136.381 465.602V468.684H119.176C118.877 468.684 118.582 468.742 118.306 468.857C118.03 468.971 117.78 469.138 117.569 469.349C117.358 469.56 117.191 469.811 117.076 470.086C116.962 470.362 116.903 470.657 116.903 470.956V476.184C116.903 476.483 116.962 476.778 117.077 477.053C117.191 477.328 117.358 477.578 117.569 477.789C117.78 477.999 118.031 478.166 118.307 478.28C118.582 478.393 118.878 478.451 119.176 478.45H136.381V481.394H113.822V465.602H136.381ZM103.082 455.559V464.698H101.243V455.546L103.082 455.559ZM99.1462 455.559V477.961H90.7415V455.546L99.1462 455.559ZM96.6354 434.512V438.184H93.089V434.493L96.6354 434.512ZM91.5135 434.512V438.184H89.5426V434.493L91.5135 434.512ZM96.6354 426.239V429.918H93.089V426.239H96.6354ZM91.5135 426.239V429.918H89.5426V426.239H91.5135ZM106.785 415.035V418.575H96.648V415.035H106.785Z" fill="#F8F8F8"/>
<path d="M70.6676 430.263V432.705H60.6309V435.416H70.6676V444.913H75.4443V430.263H70.6676Z" fill="#F8F8F8"/>
<path d="M83.1412 350.878H49.5799V348.412H44.302V359.741H27.7744L27.7744 399.557H44.302V409.903H49.5799V407.322H83.1412V411.269H97.6011V346.554H83.1412V350.878ZM56.8604 359.488V367.492L52.8695 363.487L56.8604 359.488ZM70.3442 362.836H63.7722V359.488H70.3515L70.3442 362.836ZM71.6745 359.488H76.0631V362.836H71.6818L71.6745 359.488ZM62.4347 362.836H58.4871V359.488H62.4347V362.836ZM70.3442 367.492H63.7722V364.144H70.3515L70.3442 367.492ZM71.6745 364.144H76.0631V367.492H71.6818L71.6745 364.144ZM62.4347 367.492H58.4871V364.144H62.4347V367.492ZM33.6234 369.198C33.6225 368.443 33.8351 367.703 34.2368 367.063C34.6385 366.423 35.2129 365.91 35.8936 365.583V372.755C35.2206 372.434 34.6512 371.93 34.2499 371.301C33.8487 370.673 33.6316 369.944 33.6234 369.198ZM52.8695 378.843L56.8604 374.837V382.841L52.8695 378.843ZM70.3442 378.185H63.7722V374.837H70.3515L70.3442 378.185ZM71.6745 374.837H76.0631V378.185H71.6818L71.6745 374.837ZM62.4347 378.185H58.4871V374.837H62.4347V378.185ZM58.4871 382.841V379.494H62.4347V382.841H58.4871ZM63.765 382.841V379.494H70.3442V382.841H63.765ZM71.6745 382.841V379.494H76.0631V382.841H71.6745ZM33.6234 389.529C33.6225 388.773 33.8351 388.033 34.2368 387.394C34.6385 386.754 35.2129 386.241 35.8936 385.914V393.107C35.2179 392.784 34.6467 392.276 34.2453 391.644C33.8439 391.011 33.6284 390.278 33.6234 389.529ZM52.8695 394.192L56.8604 390.187V398.19L52.8695 394.192ZM70.3442 393.534H63.7722V390.187H70.3515L70.3442 393.534ZM71.6745 390.187H76.0631V393.534H71.6818L71.6745 390.187ZM62.4347 393.534H58.4871V390.187H62.4347V393.534ZM58.4871 398.19V394.843H62.4347V398.19H58.4871ZM63.765 398.19V394.843H70.3442V398.19H63.765ZM71.6745 398.19V394.843H76.0631V398.19H71.6745ZM93.6824 403.446V406.374H86.4525V403.446H93.6824ZM77.8272 399.896V388.625H79.6781V399.896H77.8272ZM93.6824 394.835V397.771H86.4525V394.843L93.6824 394.835ZM93.6824 386.232V389.167H86.4525V386.239L93.6824 386.232ZM41.6269 389.521C41.6269 390.048 41.5231 390.569 41.3214 391.056C41.1196 391.542 40.8239 391.984 40.4512 392.356C40.0785 392.728 39.6361 393.023 39.1493 393.224C38.6626 393.425 38.1409 393.528 37.6143 393.527C37.498 393.522 37.3821 393.51 37.2673 393.491V385.538C37.3821 385.519 37.498 385.507 37.6143 385.502C38.1446 385.498 38.6703 385.599 39.1611 385.8C39.6518 386.001 40.0977 386.297 40.473 386.672C40.8483 387.047 41.1455 387.492 41.3473 387.983C41.5491 388.473 41.6515 388.998 41.6486 389.529L41.6269 389.521ZM93.6824 377.628V380.564H86.4525V377.635L93.6824 377.628ZM79.6636 373.29V384.547H77.8272V373.276L79.6636 373.29ZM37.636 373.225C37.5204 373.225 37.4047 373.225 37.289 373.189V365.236C37.4038 365.217 37.5197 365.205 37.636 365.2C38.7002 365.2 39.7209 365.623 40.4734 366.375C41.2259 367.128 41.6486 368.148 41.6486 369.213C41.6486 370.277 41.2259 371.297 40.4734 372.05C39.7209 372.802 38.7002 373.225 37.636 373.225ZM93.6824 369.046V371.938H86.4525V369.046H93.6824ZM93.6824 360.443V363.356H86.4525V360.428L93.6824 360.443ZM79.6781 357.927V369.198H77.8417V357.927H79.6781ZM93.6824 351.789V354.753H86.4525V351.789H93.6824Z" fill="#F8F8F8"/>
<path d="M20.6823 357.009V358.404H18.5494V360.139H20.6823V363.067H16.6335V364.043H20.6823V366.574H9.15776V370.124L0.0263672 379.017L9.15776 388.416V392.529H20.6823V395.479H16.6335V396.455H20.6823V399.383H18.5494V401.119H20.6823V402.68H25.1648L25.1648 357.009H20.6823ZM16.6335 378.915L10.9869 384.584L5.31144 378.915L10.9869 373.24L16.6335 378.915Z" fill="#F8F8F8"/>
<path d="M8.70623 378.908L10.9863 381.188L13.2664 378.908L10.9863 376.628L8.70623 378.908Z" fill="#F8F8F8"/>
<path d="M138 386.123V371.96H99.7686V386.123H138ZM116.853 383.397C115.715 383.351 114.639 382.867 113.85 382.046C113.062 381.224 112.621 380.13 112.621 378.991C112.621 377.852 113.062 376.757 113.85 375.936C114.639 375.115 115.715 374.63 116.853 374.584H135.73V383.397H116.853Z" fill="#F8F8F8"/>
<path d="M114.425 378.989C114.423 379.591 114.601 380.18 114.934 380.682C115.268 381.183 115.743 381.574 116.299 381.806C116.855 382.037 117.467 382.099 118.058 381.982C118.649 381.865 119.192 381.576 119.618 381.151C120.045 380.725 120.335 380.183 120.453 379.592C120.571 379.002 120.512 378.389 120.281 377.833C120.051 377.276 119.661 376.8 119.16 376.466C118.66 376.131 118.071 375.952 117.469 375.952C117.069 375.951 116.674 376.029 116.304 376.181C115.935 376.333 115.599 376.557 115.317 376.839C115.034 377.121 114.81 377.456 114.657 377.825C114.504 378.194 114.425 378.589 114.425 378.989Z" fill="#F8F8F8"/>
<path d="M121.766 376.957V381.122H123.204V376.957H121.766Z" fill="#F8F8F8"/>
<path d="M138 407.314V387.699H99.7686V407.314H138ZM129.773 400.952H113.758V393.085H129.773V400.952ZM109.768 393.085H112.45V400.952H109.768V393.085ZM131.197 405.796V402.6H132.556V405.796H131.197ZM133.735 405.796V402.6H135.087V405.796H133.735Z" fill="#F8F8F8"/>
<path d="M138 370.385V350.864H99.7686V370.385H138ZM129.773 365.093H114.416V357.226H129.773V365.093ZM135.087 352.194V355.404H133.735V352.209L135.087 352.194ZM132.556 352.194V355.404H131.197V352.209L132.556 352.194ZM109.768 357.255H113.101V365.093H109.768V357.255Z" fill="#F8F8F8"/>
<path d="M102.884 326.025V343.785H125.324V326.025H102.884Z" fill="#F8F8F8"/>
<path d="M102.884 272.435V290.195H125.324V272.435H102.884Z" fill="#F8F8F8"/>
<path d="M59.5683 323.496H47.0996V329.645H59.5683V333.669H54.6174V338.904H59.5683V346.554H99.2513V326.025H91.0587L66.0203 308.107L91.0587 290.196H99.2513V270.064H59.5683L59.5683 323.496Z" fill="#F8F8F8"/>
<path d="M92.3641 322.197H107.854V294.018H92.3641L72.0117 308.132L92.3641 322.197ZM100.197 302.69V312.749H86.9527V302.69H100.197Z" fill="#F8F8F8"/>
<path d="M88.5234 304.455V310.983H91.9102V304.455H88.5234Z" fill="#F8F8F8"/>
<path d="M93.5811 304.455V310.983H98.6392V304.455H93.5811Z" fill="#F8F8F8"/>
<path d="M124.655 294.018V322.197H137.994V294.018H124.655Z" fill="#F8F8F8"/>
<path d="M122.643 322.197V294.018H110.067V322.197H122.643ZM112.281 299.599V296.78H120.228V299.58L112.281 299.599ZM112.281 309.116V306.322H120.228V309.116H112.281ZM112.281 318.64V315.839H120.228V318.64H112.281Z" fill="#F8F8F8"/>
<path d="M51.0039 333V339.566H53.3312V333H51.0039Z" fill="#F8F8F8"/>
<path d="M138.001 343.785V326.025H127.601V343.785H138.001ZM133.371 336.564V340.058H132.211V336.564H133.371ZM129.84 341.805V338.311H131V341.805H129.84ZM134.664 341.805V338.311H135.825V341.805H134.664Z" fill="#F8F8F8"/>
<path d="M138.001 290.195V272.435H127.601V290.195H138.001ZM135.793 274.169V277.664H134.633V274.169H135.793ZM129.84 277.664V274.169H131V277.664H129.84ZM132.242 279.411V275.917H133.403V279.411H132.242Z" fill="#F8F8F8"/>
<path d="M71.1355 188.201V200.586H65.2359V199.848H61.9463V208.047H65.2359V207.302H71.1355V212.87H68.8509V215.429H71.1355V251.246L83.5638 268.417V172.013L71.1355 188.201Z" fill="#F8F8F8"/>
<path d="M88.8297 169.033H85.8799V270.064H88.8514V267.266H111.669V270.064H114.641V267.266H138V172.012H114.619V169.033H111.647V172.033H88.8297V169.033ZM135.152 255.546H124.264C123.081 255.453 121.977 254.918 121.171 254.047C120.366 253.176 119.919 252.033 119.919 250.847C119.919 249.66 120.366 248.518 121.171 247.647C121.977 246.776 123.081 246.24 124.264 246.147H135.152V255.546ZM128.146 230.01V233.517H119.557V230.01H128.146ZM128.146 220.474V223.98H119.557V220.474H128.146ZM128.146 210.938V214.451H119.557V210.967L128.146 210.938ZM128.146 201.409V204.915H119.557V201.409H128.146ZM128.146 191.872V195.386H119.557V191.872H128.146ZM128.146 182.343V185.85H119.557V182.343H128.146ZM95.4162 241.477V247.116H91.5988V241.462L95.4162 241.477ZM95.4162 249.892V255.546H91.5988V249.892H95.4162ZM98.1708 255.546V249.892H109.862V255.546H98.1708ZM98.1708 247.116V241.462H109.862V247.116H98.1708ZM98.1708 226.149V220.496H109.862V226.149H98.1708ZM98.1708 217.734V212.08H109.862V217.734H98.1708ZM95.4089 212.08V217.734H91.5915V212.08H95.4089ZM95.4089 220.496V226.149H91.5915V220.496H95.4089ZM95.4089 182.661V188.315H91.5915V182.661H95.4089ZM95.4089 191.077V196.731H91.5915V191.077H95.4089ZM109.869 196.731H98.1708V191.077H109.862L109.869 196.731ZM98.1708 188.294V182.64H109.862V188.294H98.1708Z" fill="#F8F8F8"/>
<path d="M126.691 248.898C126.69 249.11 126.752 249.318 126.869 249.495C126.986 249.672 127.153 249.81 127.349 249.892C127.544 249.974 127.76 249.996 127.968 249.955C128.177 249.914 128.368 249.812 128.518 249.662C128.668 249.512 128.77 249.32 128.811 249.112C128.852 248.904 128.831 248.688 128.749 248.492C128.667 248.296 128.528 248.129 128.351 248.012C128.174 247.895 127.966 247.834 127.754 247.835C127.472 247.835 127.202 247.947 127.003 248.146C126.803 248.346 126.691 248.616 126.691 248.898Z" fill="#F8F8F8"/>
<path d="M127.979 150.157C127.979 150.405 128.052 150.647 128.19 150.854C128.328 151.06 128.524 151.221 128.753 151.316C128.982 151.411 129.234 151.435 129.477 151.387C129.721 151.339 129.944 151.219 130.12 151.044C130.295 150.868 130.414 150.645 130.463 150.402C130.511 150.158 130.486 149.906 130.391 149.677C130.297 149.448 130.136 149.252 129.93 149.114C129.723 148.976 129.481 148.903 129.233 148.903C128.9 148.903 128.581 149.035 128.346 149.27C128.111 149.505 127.979 149.824 127.979 150.157Z" fill="#F8F8F8"/>
<path d="M97.683 103.375V110.786H91.4918V105.832H81.9996V110.786H78.2826V128.738H73.5394V138.231H66.5215V141.121H73.5394V143.185H78.2826V146.702H97.6659V157.232H92.8201V159.153H97.683V162.357H92.8201V164.278H97.683V169.033H117.22V146.4H119.261V167.973L125.914 161.964H138V103.375H126.233L118.087 92.543H97.683V103.375ZM108.617 163.235V166.331H100.984V163.235H108.617ZM108.617 156.679V159.775H100.984V156.679H108.617ZM108.617 150.123V153.218H100.984V150.123H108.617ZM134.597 155.687V159.775H132.989V155.687H134.597ZM130.846 155.687V159.775H129.232V155.687H130.846ZM136.752 147.044V153.441H129.021C128.599 153.441 128.181 153.358 127.791 153.196C127.401 153.034 127.046 152.798 126.748 152.499C126.449 152.2 126.212 151.846 126.051 151.456C125.889 151.066 125.806 150.648 125.806 150.225C125.806 149.803 125.889 149.385 126.051 148.995C126.212 148.605 126.449 148.25 126.748 147.952C127.046 147.653 127.401 147.416 127.791 147.255C128.181 147.093 128.599 147.01 129.021 147.01L136.752 147.044ZM134.597 140.745V144.832H132.989V140.745H134.597ZM130.846 140.745V144.832H129.232V140.745H130.846ZM87.8944 140.745V143.966H81.5207V140.71L87.8944 140.745ZM81.5207 117.445V114.19H87.8944V117.445H81.5207ZM81.5207 124.081V120.825H87.8944V124.081H81.5207ZM93.3275 122.097C93.3319 121.034 93.629 119.993 94.1862 119.088C94.7433 118.183 95.5389 117.449 96.4858 116.966V127.285C95.5255 126.794 94.7211 126.046 94.1631 125.123C93.6051 124.201 93.3157 123.141 93.3275 122.063V122.097ZM87.8944 134.103V137.358H81.5207V134.103H87.8944ZM81.5207 130.722V127.467H87.8944V130.722H81.5207ZM131.946 127.821V130.671H129.038V127.821H131.946ZM127.744 127.821V130.671H123.754V127.821H127.744ZM122.471 127.821V130.671H119.563V127.821H122.471ZM131.946 124.218V126.988H129.038V124.218H131.946ZM127.744 124.218V126.988H123.754V124.218H127.744ZM122.471 124.218V126.988H119.563V124.218H122.471ZM99.1254 127.889C98.7966 127.885 98.4687 127.854 98.1448 127.798V116.396C98.4683 116.336 98.7965 116.306 99.1254 116.305C100.665 116.305 102.141 116.916 103.229 118.004C104.318 119.093 104.929 120.569 104.929 122.108C104.929 123.647 104.318 125.124 103.229 126.212C102.141 127.3 100.665 127.912 99.1254 127.912V127.889ZM131.946 117.143V119.908H129.038V117.091L131.946 117.143ZM127.744 117.143V119.908H123.754V117.091L127.744 117.143ZM122.471 117.143V119.908H119.563V117.091L122.471 117.143ZM131.946 113.494V116.31H129.038V113.494H131.946ZM127.744 113.494V116.31H123.754V113.494H127.744ZM122.471 113.494V116.31H119.563V113.494H122.471ZM107.734 101.665V104.241H104.804V101.665H107.734ZM103.355 101.665V104.241H100.328V101.665H103.355ZM107.734 95.8723V98.4492H104.804V95.8723H107.734ZM103.355 95.8723V98.4492H100.328V95.8723H103.355Z" fill="#F8F8F8"/>
<path d="M130.785 -3.05176e-05V3.10884H128.992V5.22721H130.785V8.67588H128.992V10.7942H130.785V13.8453H92.6618V11.5462H97.0648V12.0378H97.9107V11.5462H99.8339V12.0378H100.687V11.5462H101.294C102.079 11.5462 102.831 11.2346 103.385 10.6801C103.94 10.1255 104.251 9.37337 104.251 8.58911V7.82274H104.808V6.96961H104.222V5.97189H102.726V6.94069H102.335V7.79382H102.726V8.56019C102.726 8.94369 102.574 9.31149 102.302 9.58266C102.031 9.85384 101.663 10.0062 101.28 10.0062H100.673V9.52901H99.8194V10.0062H97.8963V9.52901H97.0504V10.0062H92.6618V3.86798L66.41 11.6908L66.2003 18.5375H60.2428L60.2428 23.1357H66.0267L65.1013 53.2917H56.57V55.0269H65.0435V57.0441H59.7078V58.4033H65.0073L64.9206 61.0856H51.5741V60.3626H48.7979V67.1081H51.5741V66.1393H64.7326L64.6025 70.376H59.6717V69.5157H57.6906V74.2079H59.6717V73.3114H64.5085L64.3856 77.2228L92.6618 86.5132V82.0524H95.2862V82.5295H96.1322V82.0524H98.4819V82.5295H99.335V82.0524H101.685V82.5295H102.538V82.0524H104.888V82.5295H105.741V82.0524H108.09V82.5295H108.944V82.0524H111.315V82.5295H112.161V82.0524H114.511V82.5295H115.364V82.0524H117.287V82.5295H118.14V82.0524H118.747C119.131 82.0524 119.499 82.2047 119.77 82.4759C120.041 82.747 120.193 83.1148 120.193 83.4983V84.2792H119.803V85.1323H120.193V86.13H121.69V85.1323H122.268V84.2792H121.69V83.5056C121.688 82.7226 121.376 81.9723 120.821 81.4193C120.267 80.8663 119.516 80.5558 118.733 80.5558H118.126V80.0569H117.272V80.5558H115.349V80.0569H114.496V80.5558H112.146V80.0569H111.315V80.5558H108.965V80.0569H108.112V80.5558H105.748V80.0569H104.895V80.5558H102.545V80.0569H101.692V80.5558H99.3422V80.0569H98.4891V80.5558H96.1322V80.0569H95.279V80.5558H92.6618V78.3868H130.785V81.7848H128.992V83.8671H130.785V87.3302H128.992V89.4486H130.785V92.543H132.737V89.4486H138.001V87.3302H132.737V83.8671H138.001V81.7487H132.737V78.3868H138.001V13.7802H132.737V10.7292H138.001V8.67588H132.737V5.25612H138.001V3.13775H132.737V-3.05176e-05H130.785ZM96.2334 25.5577V20.4968H104.266V25.5577H96.2334ZM106.008 27.3508V18.8773H108.38V27.3508H106.008ZM112.515 20.5113H120.548V25.5722H112.493L112.515 20.5113ZM96.2334 72.8197V67.7588H104.266V72.8197H96.2334ZM124.64 66.1393V74.6128H122.268V66.1393H124.64ZM120.526 72.8197H112.493V67.7588H120.526V72.8197ZM108.38 66.1393V74.6128H106.008V66.1393H108.38ZM134.704 51.3324H124.473C123.097 51.3324 121.776 50.7855 120.803 49.812C119.829 48.8385 119.282 47.5181 119.282 46.1413C119.282 44.7646 119.829 43.4442 120.803 42.4707C121.776 41.4972 123.097 40.9502 124.473 40.9502H134.704V51.3324ZM104.974 49.1634H91.4399V43.0903H104.974V49.1634ZM134.704 35.2097L91.8303 35.2097L82.6339 46.1269L91.8303 57.0441L134.704 57.0441V60.4638L90.3482 60.4638L77.638 46.1196L90.3482 31.8116L134.689 31.8116L134.704 35.2097ZM122.268 27.358V18.8845H124.64V27.3508L122.268 27.358Z" fill="#F8F8F8"/>
<path d="M122.275 46.1193C122.275 46.5883 122.414 47.0468 122.675 47.4368C122.936 47.8268 123.306 48.1307 123.739 48.3102C124.173 48.4897 124.649 48.5367 125.109 48.4452C125.569 48.3537 125.992 48.1278 126.324 47.7961C126.655 47.4645 126.881 47.042 126.973 46.5819C127.064 46.1219 127.017 45.6451 126.838 45.2118C126.658 44.7785 126.354 44.4081 125.964 44.1475C125.574 43.887 125.116 43.7479 124.647 43.7479C124.018 43.7479 123.415 43.9977 122.97 44.4425C122.525 44.8872 122.275 45.4904 122.275 46.1193Z" fill="#F8F8F8"/>
</svg>
