<svg width="50" height="50" viewBox="0 0 50 50" fill="none" xmlns="http://www.w3.org/2000/svg">
<path fill-rule="evenodd" clip-rule="evenodd" d="M24.5457 44.3972C18.996 39.3285 14.8513 34.6202 12.1116 30.2722C9.37053 25.9257 8 21.9026 8 18.2028C8 12.6532 9.66353 8.23197 12.9906 4.93918C16.3163 1.64639 20.168 0 24.5457 0C28.9234 0 32.7751 1.64639 36.1008 4.93918C39.4278 8.23197 41.0914 12.6532 41.0914 18.2028C41.0914 21.9026 39.7215 25.9257 36.9818 30.2722C34.2408 34.6202 30.0954 39.3285 24.5457 44.3972ZM33.7377 18.7455C33.7377 25.829 29.6223 31.5713 24.5457 31.5713C19.4691 31.5713 15.3536 25.829 15.3536 18.7455C15.3536 11.6619 19.4691 5.91962 24.5457 5.91962C29.6223 5.91962 33.7377 11.6619 33.7377 18.7455Z" fill="#F76969"/>
<path d="M16.4354 43.2944C17.1188 43.0273 17.4662 42.2797 17.1598 41.614C16.8594 40.9613 16.0627 40.6804 15.3901 40.9433C14.4047 41.3283 13.5217 41.8081 12.8635 42.398C12.2033 42.9897 11.6768 43.783 11.6768 44.7491C11.6768 45.8032 12.2999 46.647 13.0474 47.2577C13.7988 47.8715 14.8076 48.3664 15.9368 48.7566C18.2058 49.5405 21.2498 50 24.5457 50C27.8416 50 30.8856 49.5405 33.1546 48.7566C34.2837 48.3664 35.2925 47.8715 36.044 47.2577C36.7915 46.647 37.4146 45.8032 37.4146 44.7491C37.4146 43.7824 36.888 42.9893 36.2275 42.3976C35.5694 41.8082 34.6865 41.329 33.7022 40.9436C33.0297 40.6803 32.2329 40.9607 31.932 41.6132C31.6251 42.2786 31.9719 43.0266 32.6551 43.294C33.4621 43.61 34.0181 43.9415 34.351 44.2396C34.6795 44.5339 34.6981 44.7052 34.6981 44.7491C34.6981 44.7956 34.6745 44.998 34.2594 45.3371C33.8459 45.6749 33.1689 46.037 32.215 46.3666C30.3178 47.0221 27.6065 47.4528 24.5457 47.4528C21.4849 47.4528 18.7736 47.0221 16.8764 46.3666C15.9225 46.037 15.2455 45.6749 14.832 45.3371C14.4169 44.998 14.3933 44.7956 14.3933 44.7491C14.3933 44.7059 14.4118 44.5341 14.7408 44.2393C15.0736 43.941 15.6294 43.6093 16.4354 43.2944Z" fill="#F76969"/>
</svg>
