<svg width="50" height="50" viewBox="0 0 50 50" fill="none" xmlns="http://www.w3.org/2000/svg">
<path d="M13.2221 23.0035V38.6654H17.627V20.5563L13.2221 23.0035Z" fill="#577291"/>
<path d="M25.9474 10.7676L19.8295 14.4383V21.2904L21.5425 22.7588V38.6654H25.9474V10.7676Z" fill="#577291"/>
<path d="M34.5126 0L28.3946 3.67077V10.5229L30.1076 11.9912V38.6654H34.5126V0Z" fill="#577291"/>
<path d="M46.259 15.9194L34.5126 7.7745V11.1093L46.259 19.088V15.9194Z" fill="#DEC8B4"/>
<path fill-rule="evenodd" clip-rule="evenodd" d="M39.8964 21.0457V23.2482H37.6939V21.0457H39.8964ZM39.8964 23.7376H37.6939V25.9401H39.8964V23.7376ZM40.3858 25.9401V23.7376H42.5882V25.9401H40.3858ZM40.3858 23.2482V21.0457H42.5882V23.2482H40.3858Z" fill="#DEC8B4"/>
<path d="M3.72679 47.2889C4.04254 47.5067 4.48624 47.6155 5.05787 47.6155C5.4444 47.6155 5.73293 47.5039 5.92348 47.2807C6.11946 47.0575 6.21746 46.7908 6.21746 46.4804C6.21746 46.3171 6.20385 46.181 6.17663 46.0721C6.14941 45.9578 6.08952 45.8299 5.99697 45.6883C5.90987 45.5468 5.76832 45.4052 5.57233 45.2637C5.37635 45.1221 5.12047 44.9724 4.80472 44.8145C4.43452 44.6294 4.13509 44.4552 3.90644 44.2919C3.67779 44.1286 3.5063 43.9598 3.39197 43.7856C3.27765 43.6114 3.20143 43.4454 3.16332 43.2875C3.12521 43.1296 3.10616 42.9336 3.10616 42.6995C3.10616 42.2204 3.2967 41.8502 3.67779 41.5889C4.06432 41.3222 4.5189 41.1888 5.04153 41.1888C5.68938 41.1888 6.31545 41.3521 6.91974 41.6788V43.2467C6.73465 43.2793 6.57949 43.2793 6.45427 43.2467L6.19296 41.8339C5.84454 41.6434 5.45528 41.5481 5.0252 41.5481C4.73666 41.5481 4.49168 41.6352 4.29025 41.8094C4.09426 41.9782 3.99627 42.2177 3.99627 42.528C3.99627 42.7022 4.00716 42.8383 4.02893 42.9363C4.05071 43.0343 4.10515 43.1514 4.19226 43.2875C4.27936 43.4181 4.42363 43.5515 4.62506 43.6876C4.82649 43.8183 5.09597 43.9653 5.43351 44.1286C6.59854 44.6948 7.18106 45.3698 7.18106 46.1538C7.18106 46.7091 6.96874 47.1582 6.5441 47.5012C6.11946 47.8442 5.56417 48.0157 4.87821 48.0157C4.1977 48.0157 3.57163 47.8551 3 47.5339V45.966C3.1851 45.9333 3.34026 45.9333 3.46547 45.966L3.72679 47.2889Z" fill="#577291"/>
<path d="M8.08195 45.6802C8.08195 45.3535 8.12823 45.0486 8.22078 44.7656C8.31877 44.477 8.45759 44.2266 8.63725 44.0143C8.8169 43.8019 9.03194 43.6359 9.28237 43.5161C9.53824 43.3909 9.82406 43.3283 10.1398 43.3283C10.4501 43.3283 10.7332 43.3909 10.9891 43.5161C11.245 43.6359 11.4627 43.8019 11.6424 44.0143C11.8275 44.2266 11.969 44.477 12.067 44.7656C12.165 45.0486 12.214 45.3535 12.214 45.6802C12.214 46.0177 12.1623 46.328 12.0589 46.6111C11.9609 46.8942 11.8193 47.1419 11.6342 47.3542C11.4546 47.5611 11.2368 47.7244 10.9809 47.8442C10.7251 47.9585 10.4447 48.0157 10.1398 48.0157C9.81862 48.0157 9.53008 47.9585 9.27421 47.8442C9.02378 47.7299 8.80874 47.5693 8.62908 47.3624C8.45487 47.1555 8.31877 46.9105 8.22078 46.6274C8.12823 46.3389 8.08195 46.0231 8.08195 45.6802ZM9.27421 44.1776C9.04011 44.5097 8.92306 45.0105 8.92306 45.6802C8.92306 46.0122 8.95301 46.3035 9.01289 46.5539C9.07822 46.8044 9.16532 47.014 9.27421 47.1827C9.38309 47.3461 9.51102 47.4685 9.65801 47.5502C9.80501 47.6319 9.96561 47.6727 10.1398 47.6727C10.3086 47.6727 10.4692 47.6319 10.6216 47.5502C10.7741 47.4685 10.9047 47.3461 11.0136 47.1827C11.1225 47.014 11.2096 46.8044 11.2749 46.5539C11.3402 46.3035 11.3729 46.0122 11.3729 45.6802C11.3729 45.3481 11.3402 45.0568 11.2749 44.8064C11.2096 44.5505 11.1198 44.3409 11.0054 44.1776C10.8965 44.0088 10.7659 43.8836 10.6135 43.8019C10.4665 43.7148 10.3086 43.6713 10.1398 43.6713C9.80228 43.6713 9.51375 43.8401 9.27421 44.1776Z" fill="#577291"/>
<path d="M18.8678 44.937C18.8678 44.1803 18.6255 43.8019 18.141 43.8019C17.7272 43.8019 17.3352 44.0878 16.965 44.6594V47.4359L17.6265 47.5584C17.6483 47.6455 17.6483 47.7544 17.6265 47.885C17.2835 47.8687 16.9351 47.8605 16.5812 47.8605C16.3308 47.8605 15.9769 47.866 15.5196 47.8769C15.487 47.7734 15.487 47.6673 15.5196 47.5584L16.1648 47.4685C16.1865 47.1691 16.1974 46.8234 16.1974 46.4314V44.937C16.1974 44.1803 15.9552 43.8019 15.4706 43.8019C15.2257 43.8019 15.0106 43.8782 14.8255 44.0306C14.6404 44.1776 14.4499 44.409 14.2539 44.7247V47.4359L14.9153 47.5584C14.9371 47.6455 14.9371 47.7544 14.9153 47.885C14.5724 47.8687 14.2239 47.8605 13.8701 47.8605C13.6197 47.8605 13.2658 47.866 12.8085 47.8769C12.7758 47.7734 12.7758 47.6673 12.8085 47.5584L13.4536 47.4685C13.4754 47.1691 13.4863 46.8234 13.4863 46.4314V44.1939C13.4863 44.085 13.4781 43.9843 13.4618 43.8918L12.8167 43.8101C12.7949 43.7285 12.7949 43.625 12.8167 43.4998C13.1814 43.4726 13.6469 43.4154 14.2131 43.3283C14.2621 43.3828 14.2893 43.4372 14.2947 43.4916C14.2675 43.6332 14.2539 43.8754 14.2539 44.2184C14.684 43.625 15.1685 43.3283 15.7075 43.3283C15.9906 43.3283 16.2491 43.4018 16.4832 43.5488C16.7173 43.6903 16.8671 43.9108 16.9324 44.2103C17.3679 43.6223 17.8497 43.3283 18.3778 43.3283C18.7099 43.3283 19.0011 43.4263 19.2516 43.6223C19.5074 43.8183 19.6354 44.1204 19.6354 44.5287V47.4359L20.2968 47.5584C20.3186 47.6455 20.3186 47.7544 20.2968 47.885C19.9539 47.8687 19.6054 47.8605 19.2516 47.8605C19.0011 47.8605 18.6473 47.866 18.19 47.8769C18.1573 47.7734 18.1573 47.6673 18.19 47.5584L18.8351 47.4685C18.8569 47.1691 18.8678 46.8234 18.8678 46.4314V44.937Z" fill="#577291"/>
<path d="M24.1752 45.5495H21.6111C21.5621 46.9377 21.9785 47.6319 22.8605 47.6319C23.2361 47.6319 23.6199 47.4658 24.0119 47.1337C24.0936 47.1827 24.1562 47.2671 24.1997 47.3869C23.8241 47.8061 23.3477 48.0157 22.7707 48.0157C21.4423 48.0157 20.7781 47.2344 20.7781 45.672C20.7781 44.9316 20.9741 44.3572 21.3661 43.9489C21.7581 43.5352 22.2154 43.3283 22.738 43.3283C23.3096 43.3283 23.7207 43.527 23.9711 43.9244C24.2215 44.3219 24.3467 44.839 24.3467 45.476C24.2923 45.5196 24.2351 45.5441 24.1752 45.5495ZM22.7217 43.655C22.4386 43.655 22.1963 43.8019 21.9949 44.0959C21.7989 44.3899 21.6791 44.7656 21.6356 45.2229H22.6482C23.051 45.2229 23.3396 45.1984 23.5138 45.1494C23.5138 44.7029 23.4457 44.3436 23.3096 44.0714C23.1735 43.7938 22.9775 43.655 22.7217 43.655Z" fill="#577291"/>
<path d="M26.2526 42.5117V43.6795H27.404C27.4149 43.7448 27.4204 43.7938 27.4204 43.8264C27.4204 43.8754 27.4149 43.9326 27.404 43.9979L26.2526 44.1694V46.4151C26.2526 46.818 26.288 47.1038 26.3588 47.2726C26.435 47.4359 26.552 47.5175 26.7099 47.5175C26.8515 47.5175 27.072 47.4604 27.3714 47.3461C27.4258 47.395 27.4639 47.4876 27.4857 47.6237C27.3224 47.7217 27.1972 47.7952 27.1101 47.8442C27.0284 47.8877 26.9222 47.9258 26.7916 47.9585C26.6664 47.9966 26.533 48.0157 26.3914 48.0157C26.1192 48.0157 25.896 47.9122 25.7218 47.7054C25.5531 47.493 25.4687 47.1718 25.4687 46.7418V44.0714L24.897 43.9979C24.8862 43.9435 24.8807 43.8972 24.8807 43.8591C24.8807 43.8156 24.8862 43.7557 24.897 43.6795C25.0495 43.6522 25.1801 43.606 25.289 43.5406C25.4033 43.4699 25.4986 43.3746 25.5748 43.2548C25.651 43.1296 25.7082 43.0207 25.7463 42.9282C25.7899 42.8302 25.8416 42.6914 25.9015 42.5117C25.9505 42.4954 26.0104 42.4872 26.0811 42.4872C26.1465 42.4872 26.2036 42.4954 26.2526 42.5117Z" fill="#577291"/>
<path d="M28.4448 42.5525C28.4448 42.1932 28.4366 41.9265 28.4203 41.7523L27.7752 41.6706C27.7534 41.5889 27.7534 41.4855 27.7752 41.3603C28.1399 41.3331 28.6054 41.2759 29.1716 41.1888C29.2206 41.2432 29.2478 41.2977 29.2532 41.3521C29.226 41.4937 29.2124 41.9346 29.2124 42.675V44.2184C29.6153 43.6631 30.0998 43.3855 30.666 43.3855C31.0035 43.3855 31.292 43.4699 31.5316 43.6386C31.7711 43.8074 31.8909 44.0959 31.8909 44.5042V47.4359L32.5523 47.5584C32.5741 47.6455 32.5741 47.7544 32.5523 47.885C32.2094 47.8687 31.8609 47.8605 31.5071 47.8605C31.2567 47.8605 30.9028 47.866 30.4455 47.8769C30.4128 47.7734 30.4128 47.6673 30.4455 47.5584L31.0906 47.4685C31.1124 47.1691 31.1233 46.8234 31.1233 46.4314V44.9125C31.1233 44.5315 31.0743 44.2565 30.9763 44.0878C30.8837 43.919 30.7122 43.8346 30.4618 43.8346C30.2549 43.8346 30.0372 43.9108 29.8085 44.0633C29.5853 44.2157 29.3866 44.4362 29.2124 44.7247V47.4359L29.8739 47.5584C29.8956 47.6455 29.8956 47.7544 29.8739 47.885C29.5309 47.8687 29.1825 47.8605 28.8286 47.8605C28.5782 47.8605 28.2243 47.866 27.767 47.8769C27.7343 47.7734 27.7343 47.6673 27.767 47.5584L28.4121 47.4685C28.4339 47.1691 28.4448 46.8234 28.4448 46.4314V42.5525Z" fill="#577291"/>
<path d="M34.3823 44.8145V47.4359L35.0438 47.5584C35.0492 47.5856 35.0519 47.6101 35.0519 47.6319C35.0574 47.6536 35.0601 47.6781 35.0601 47.7054C35.0601 47.7326 35.0574 47.7625 35.0519 47.7952C35.0519 47.8224 35.0492 47.8524 35.0438 47.885C34.7008 47.8687 34.3497 47.8605 33.9904 47.8605C33.8651 47.8605 33.7127 47.8605 33.533 47.8605C33.3588 47.866 33.1574 47.8714 32.9288 47.8769C32.9124 47.8279 32.9043 47.7761 32.9043 47.7217C32.9043 47.6727 32.9124 47.6183 32.9288 47.5584L33.5739 47.4685C33.5848 47.3161 33.5929 47.1555 33.5984 46.9867C33.6038 46.8125 33.6065 46.6274 33.6065 46.4314V44.6921C33.6065 44.3327 33.5984 44.066 33.582 43.8918L32.9369 43.8101C32.926 43.7829 32.9206 43.7366 32.9206 43.6713C32.9206 43.6441 32.9206 43.6169 32.9206 43.5896C32.9206 43.5624 32.926 43.5325 32.9369 43.4998C33.3071 43.478 33.7753 43.4209 34.3415 43.3283C34.3905 43.3828 34.4177 43.4372 34.4232 43.4916C34.3959 43.6441 34.3823 44.085 34.3823 44.8145ZM33.1901 41.8992C33.1792 41.872 33.1737 41.8448 33.1737 41.8176C33.1737 41.7849 33.1737 41.755 33.1737 41.7277C33.1737 41.5808 33.2336 41.4637 33.3534 41.3766C33.4786 41.2841 33.631 41.2378 33.8107 41.2378C33.9795 41.2378 34.1156 41.2895 34.219 41.3929C34.3279 41.4909 34.3823 41.627 34.3823 41.8012C34.3823 41.9428 34.3197 42.0571 34.1945 42.1442C34.0747 42.2313 33.9196 42.2749 33.729 42.2749C33.5984 42.2749 33.4813 42.2422 33.3779 42.1769C33.2799 42.1116 33.2173 42.019 33.1901 41.8992Z" fill="#577291"/>
<path d="M38.8539 44.937C38.8539 44.5178 38.7967 44.2239 38.6824 44.0551C38.5735 43.8863 38.3884 43.8019 38.1271 43.8019C37.7242 43.8019 37.3186 44.1041 36.9103 44.7084V47.4359L37.5718 47.5584C37.5936 47.6455 37.5936 47.7544 37.5718 47.885C37.2288 47.8687 36.8777 47.8605 36.5183 47.8605C36.2679 47.8605 35.914 47.866 35.4567 47.8769C35.4241 47.7734 35.4241 47.6673 35.4567 47.5584L36.1019 47.4685C36.1236 47.1691 36.1345 46.8234 36.1345 46.4314V44.1939C36.1345 44.085 36.1264 43.9843 36.11 43.8918L35.4649 43.8101C35.4431 43.7285 35.4431 43.625 35.4649 43.4998C35.8406 43.4726 36.3087 43.4154 36.8695 43.3283C36.9185 43.3828 36.9457 43.4372 36.9511 43.4916C36.9239 43.6332 36.9103 43.8754 36.9103 44.2184C37.3404 43.625 37.8249 43.3283 38.3639 43.3283C39.2077 43.3283 39.6296 43.7285 39.6296 44.5287V47.4359L40.2911 47.5584C40.3129 47.6455 40.3129 47.7544 40.2911 47.885C39.9481 47.8687 39.597 47.8605 39.2377 47.8605C38.9872 47.8605 38.6334 47.866 38.1761 47.8769C38.1434 47.7734 38.1434 47.6673 38.1761 47.5584L38.8212 47.4685C38.843 47.1691 38.8539 46.8234 38.8539 46.4314V44.937Z" fill="#577291"/>
<path d="M41.3912 47.9422C41.4402 47.964 41.4811 48.0102 41.5137 48.081C41.3341 48.228 41.2442 48.4485 41.2442 48.7425C41.2442 49.0038 41.364 49.2134 41.6035 49.3713C41.8431 49.5291 42.1534 49.6081 42.5345 49.6081C42.9265 49.6081 43.2531 49.5346 43.5144 49.3876C43.7757 49.246 43.9064 49.0446 43.9064 48.7833C43.9064 48.5002 43.8547 48.2906 43.7512 48.1545C43.6478 48.0238 43.4409 47.9449 43.1306 47.9177L41.6035 47.7789C41.4348 47.7571 41.2932 47.67 41.1789 47.5175C41.07 47.3597 41.0156 47.2072 41.0156 47.0602L41.5627 46.1538C41.3123 46.0123 41.1217 45.8244 40.9911 45.5903C40.8659 45.3562 40.8033 45.1167 40.8033 44.8717C40.8033 44.409 40.9748 44.036 41.3177 43.753C41.6607 43.4699 42.0554 43.3283 42.5018 43.3283C42.9319 43.3283 43.3103 43.4426 43.6369 43.6713C43.6641 42.9255 43.9418 42.5389 44.4699 42.5117C44.6114 42.5444 44.6822 42.6614 44.6822 42.8628C44.6822 42.9717 44.6713 43.0915 44.6495 43.2222C44.4372 43.2385 44.263 43.3093 44.1269 43.4345C43.9908 43.5542 43.8928 43.6931 43.8329 43.8509C44.1051 44.1231 44.2412 44.4634 44.2412 44.8717C44.2412 45.3018 44.067 45.6611 43.7186 45.9496C43.3702 46.2327 42.9646 46.3743 42.5018 46.3743C42.2568 46.3743 42.0363 46.3416 41.8404 46.2763L41.5627 47.0031L43.5961 47.2072C43.9118 47.2453 44.1514 47.3624 44.3147 47.5584C44.4835 47.7489 44.5679 47.9993 44.5679 48.3097C44.5679 48.8541 44.3719 49.2705 43.9799 49.5591C43.5879 49.8531 43.0571 50 42.3875 50C41.8322 50 41.3994 49.8993 41.0891 49.6979C40.7788 49.4965 40.6236 49.227 40.6236 48.8895C40.6236 48.6608 40.6971 48.4566 40.8441 48.277C40.9911 48.1028 41.1735 47.9912 41.3912 47.9422ZM41.5382 44.8717C41.5382 45.1875 41.6253 45.457 41.7995 45.6802C41.9792 45.9034 42.216 46.015 42.51 46.015C42.7985 46.015 43.0353 45.9061 43.2204 45.6883C43.4055 45.4651 43.4981 45.1929 43.4981 44.8717C43.4981 44.5233 43.4055 44.2348 43.2204 44.0061C43.0408 43.772 42.804 43.655 42.51 43.655C42.2323 43.655 42.001 43.772 41.8159 44.0061C41.6308 44.2402 41.5382 44.5287 41.5382 44.8717Z" fill="#577291"/>
</svg>
