<svg width="50" height="50" viewBox="0 0 50 50" fill="none" xmlns="http://www.w3.org/2000/svg">
<path d="M5 45C3.625 45 2.44833 44.5108 1.47 43.5325C0.49 42.5525 0 41.375 0 40V10C0 8.625 0.49 7.44833 1.47 6.47C2.44833 5.49 3.625 5 5 5H45C46.375 5 47.5525 5.49 48.5325 6.47C49.5108 7.44833 50 8.625 50 10V40C50 41.375 49.5108 42.5525 48.5325 43.5325C47.5525 44.5108 46.375 45 45 45H5ZM25 27.0625C25.2083 27.0625 25.4267 27.0308 25.655 26.9675C25.885 26.9058 26.1042 26.8125 26.3125 26.6875L44 15.625C44.3333 15.4167 44.5833 15.1567 44.75 14.845C44.9167 14.5317 45 14.1875 45 13.8125C45 12.9792 44.6458 12.3542 43.9375 11.9375C43.2292 11.5208 42.5 11.5417 41.75 12L25 22.5L8.25 12C7.5 11.5417 6.77083 11.5308 6.0625 11.9675C5.35417 12.4058 5 13.0208 5 13.8125C5 14.2292 5.08333 14.5933 5.25 14.905C5.41667 15.2183 5.66667 15.4583 6 15.625L23.6875 26.6875C23.8958 26.8125 24.115 26.9058 24.345 26.9675C24.5733 27.0308 24.7917 27.0625 25 27.0625V27.0625Z" fill="#BFC4CC"/>
</svg>
