<svg width="50" height="50" viewBox="0 0 50 50" fill="none" xmlns="http://www.w3.org/2000/svg">
<path fill-rule="evenodd" clip-rule="evenodd" d="M0 11.7241C0 10.7719 0.688793 10 1.53846 10H48.4615C49.3112 10 50 10.7719 50 11.7241C50 12.6764 49.3112 13.4483 48.4615 13.4483H1.53846C0.688793 13.4483 0 12.6764 0 11.7241Z" fill="#577291"/>
<path fill-rule="evenodd" clip-rule="evenodd" d="M11.5386 20.3448C11.5386 19.3926 12.2274 18.6207 13.077 18.6207H48.4616C49.3113 18.6207 50.0001 19.3926 50.0001 20.3448C50.0001 21.297 49.3113 22.0689 48.4616 22.0689H13.077C12.2274 22.0689 11.5386 21.297 11.5386 20.3448Z" fill="#DEC8B4"/>
<path fill-rule="evenodd" clip-rule="evenodd" d="M0 28.9655C0 28.0133 0.688793 27.2414 1.53846 27.2414H48.4615C49.3112 27.2414 50 28.0133 50 28.9655C50 29.9177 49.3112 30.6897 48.4615 30.6897H1.53846C0.688793 30.6897 0 29.9177 0 28.9655Z" fill="#577291"/>
<path fill-rule="evenodd" clip-rule="evenodd" d="M26.9232 37.5862C26.9232 36.634 27.612 35.8621 28.4617 35.8621H48.4617C49.3113 35.8621 50.0001 36.634 50.0001 37.5862C50.0001 38.5384 49.3113 39.3103 48.4617 39.3103H28.4617C27.612 39.3103 26.9232 38.5384 26.9232 37.5862Z" fill="#577291"/>
</svg>
