<svg width="50" height="50" viewBox="0 0 50 50" fill="none" xmlns="http://www.w3.org/2000/svg">
<path d="M27.6288 25.7782H27.1288V26.2782V36.2632C27.1288 37.0854 26.454 37.7602 25.6318 37.7602H19.6408C18.8186 37.7602 18.1438 37.0854 18.1438 36.2632V22.2841V21.7841H17.6438H14.2489C13.796 21.7841 13.5832 21.2194 13.9207 20.9217L13.9207 20.9217L13.9245 20.9183L30.6183 5.88186C30.6185 5.88169 30.6187 5.88151 30.6188 5.88134C31.1877 5.37289 32.058 5.37289 32.6269 5.88134C32.6271 5.88151 32.6273 5.88169 32.6275 5.88186L49.3213 20.9183L49.3212 20.9184L49.3305 20.9264C49.6617 21.2102 49.4716 21.7841 48.9969 21.7841H45.602H45.102V22.2841V36.2632C45.102 37.0854 44.4272 37.7602 43.6049 37.7602H37.6139C36.7917 37.7602 36.1169 37.0854 36.1169 36.2632V26.2782V25.7782H35.6169H27.6288ZM22.5034 23.9975H22.2535H20.0038H19.5038V24.4975V26.7472V26.9971V27.2472V27.4971V29.7469V30.2469H20.0038H22.2535H22.5034H22.7535H23.0034H25.2531H25.7531V29.7469V27.4971V27.2472V26.9971V26.7472V24.4975V23.9975H25.2531H23.0034H22.7535H22.5034Z" stroke="#BFC4CC"/>
<path fill-rule="evenodd" clip-rule="evenodd" d="M13.4366 33.6466L12.7316 33.0398L12.1248 32.3349C10.9562 30.9772 10.1021 29.3781 9.62367 27.6518C9.14523 25.9256 9.05427 24.1149 9.3573 22.3494L9.35784 22.3462C10.235 17.1577 14.5807 13.0007 19.8038 12.3665L19.807 12.3661L19.8102 12.3657C21.6511 12.1328 23.5209 12.3241 25.2764 12.925C27.032 13.5259 28.6269 14.5204 29.939 15.8325C31.251 17.1446 32.2456 18.7394 32.8465 20.495C33.4474 22.2506 33.6387 24.1204 33.4058 25.9613L33.4054 25.9644L33.405 25.9676C32.7708 31.1907 28.6138 35.5364 23.4252 36.4136L23.4221 36.4141C21.6566 36.7172 19.8459 36.6262 18.1196 36.1478C16.3934 35.6693 14.7942 34.8153 13.4366 33.6466ZM13.5899 20.5468L21.0408 13.8455C15.3257 14.0056 10.7586 18.6725 10.7586 24.4271C10.7586 28.9808 13.6184 32.8533 17.6438 34.3507V22.2842H14.2489C13.3303 22.2842 12.9109 21.1459 13.5899 20.5468ZM27.6289 26.2783H31.7696C31.2902 29.0079 29.7687 31.3739 27.6289 32.9523V26.2783ZM20.0038 24.4976H22.2536V26.7473H20.0038V24.4976ZM22.2536 27.4972H20.0038V29.7469H22.2536V27.4972ZM23.0035 27.4972H25.2532V29.7469H23.0035V27.4972ZM25.2532 24.4976H23.0035V26.7473H25.2532V24.4976Z" fill="white"/>
<path d="M12.3158 34.2262L1.89138 44.6506C1.46179 45.0802 0.751797 45.0802 0.322199 44.6506C-0.1074 44.221 -0.1074 43.511 0.322199 43.0814L0.324843 43.0788L10.7232 32.6314H12.3158V34.2262Z" fill="white"/>
</svg>
