<svg width="50" height="50" viewBox="0 0 50 50" fill="none" xmlns="http://www.w3.org/2000/svg">
<path fill-rule="evenodd" clip-rule="evenodd" d="M12.1125 35.7699C21.8575 34.6912 28.205 34.7887 37.9025 35.7924C38.6254 35.8679 39.3106 36.1525 39.8742 36.6114C40.4378 37.0702 40.8554 37.6835 41.0759 38.376C41.2964 39.0686 41.3101 39.8104 41.1155 40.5107C40.9208 41.2109 40.5262 41.8392 39.98 42.3187C34.2613 47.3037 29.4988 50.0187 24.6588 49.9999C19.805 49.9824 15.2525 47.2212 9.95126 42.3024C9.5717 41.9489 9.26912 41.5209 9.06244 41.0451C8.85575 40.5694 8.74939 40.0561 8.75001 39.5374C8.74818 38.6055 9.09026 37.7056 9.71071 37.0102C10.3312 36.3148 11.1864 35.874 12.1125 35.7699Z" fill="#577291"/>
<path fill-rule="evenodd" clip-rule="evenodd" d="M25 47.4999C37.4263 47.4999 47.5 37.4262 47.5 24.9999C47.5 12.5737 37.4263 2.49994 25 2.49994C12.5738 2.49994 2.5 12.5737 2.5 24.9999C2.5 37.4262 12.5738 47.4999 25 47.4999ZM25 49.9999C38.8075 49.9999 50 38.8074 50 24.9999C50 11.1924 38.8075 -6.10352e-05 25 -6.10352e-05C11.1925 -6.10352e-05 0 11.1924 0 24.9999C0 38.8074 11.1925 49.9999 25 49.9999Z" fill="#577291"/>
<path fill-rule="evenodd" clip-rule="evenodd" d="M25.3571 30.7142C27.9146 30.7142 30.3673 29.6983 32.1757 27.8899C33.9841 26.0815 35 23.6288 35 21.0714C35 18.5139 33.9841 16.0612 32.1757 14.2528C30.3673 12.4445 27.9146 11.4285 25.3571 11.4285C22.7997 11.4285 20.347 12.4445 18.5386 14.2528C16.7302 16.0612 15.7143 18.5139 15.7143 21.0714C15.7143 23.6288 16.7302 26.0815 18.5386 27.8899C20.347 29.6983 22.7997 30.7142 25.3571 30.7142Z" fill="#577291"/>
</svg>
