<svg width="50" height="50" viewBox="0 0 50 50" fill="none" xmlns="http://www.w3.org/2000/svg">
<path d="M15.7063 45.6272C34.575 45.6272 44.8969 29.9928 44.8969 16.4584C44.8969 16.0209 44.8969 15.5772 44.8781 15.1397C46.8877 13.6849 48.6221 11.8839 50 9.82092C48.1229 10.6486 46.1336 11.1941 44.0969 11.4397C46.2423 10.1573 47.8491 8.13957 48.6187 5.76154C46.6031 6.95568 44.3969 7.79396 42.0969 8.23967C40.5506 6.59287 38.5044 5.50191 36.2753 5.13578C34.0461 4.76966 31.7585 5.1488 29.7667 6.21447C27.7749 7.28015 26.19 8.97288 25.2577 11.0305C24.3253 13.0881 24.0974 15.3957 24.6094 17.5959C20.5304 17.3914 16.5401 16.3318 12.897 14.4857C9.25397 12.6397 6.03964 10.0486 3.4625 6.88029C2.15419 9.13993 1.75492 11.8128 2.34577 14.3561C2.93662 16.8995 4.4733 19.1226 6.64375 20.574C5.01731 20.5188 3.42663 20.082 2 19.299V19.4397C2.0028 21.8068 2.82284 24.1004 4.32148 25.9327C5.82013 27.765 7.90546 29.0237 10.225 29.4959C9.34457 29.7385 8.43509 29.8594 7.52188 29.8553C6.87807 29.8573 6.23556 29.7976 5.60312 29.6772C6.25871 31.7149 7.53523 33.4964 9.2539 34.7724C10.9726 36.0484 13.0473 36.7548 15.1875 36.7928C11.5517 39.6484 7.06063 41.1972 2.4375 41.1897C1.62288 41.1931 0.808822 41.1462 0 41.0491C4.69223 44.0405 10.1416 45.6289 15.7063 45.6272V45.6272Z" fill="#BFC4CC"/>
</svg>
